<svg width="512" height="512" viewBox="0 0 512 512" xmlns="http://www.w3.org/2000/svg">
  <defs>
    <linearGradient id="bg" x1="0" y1="0" x2="1" y2="1">
      <stop offset="0" stop-color="#7FD8BE"/>
      <stop offset="1" stop-color="#C9B8E8"/>
    </linearGradient>
  </defs>
  <!-- full-bleed gradient background (safe for maskable: key art stays in center 80%) -->
  <rect width="512" height="512" fill="url(#bg)"/>
  <!-- cloud -->
  <path fill="#1B1F3B" d="M188 300c-33 0-60-27-60-60 0-33 27-60 60-60 5 0 10 1 15 2 13-28 41-47 74-47 41 0 75 30 81 69 30 3 53 28 53 59 0 33-27 60-60 60H188z" transform="translate(-8 -34)"/>
  <!-- wardrobe below the cloud (digital meets physical) -->
  <g fill="none" stroke="#1B1F3B" stroke-width="14" stroke-linejoin="round">
    <rect x="176" y="300" width="160" height="118" rx="16"/>
    <line x1="256" y1="300" x2="256" y2="418"/>
    <line x1="222" y1="336" x2="222" y2="360" stroke-linecap="round"/>
    <line x1="290" y1="336" x2="290" y2="360" stroke-linecap="round"/>
  </g>
</svg>
